<svg width="125" height="119" viewBox="0 0 125 119" fill="none" xmlns="http://www.w3.org/2000/svg">
<path d="M0.480262 83.1311C2.86901 94.4588 9.50715 97.9413 14.8591 96.6545C25.2091 94.166 50.9446 93.9808 74.4447 109.798C105.569 130.746 116.843 109.804 110.17 85.3105C103.498 60.817 104.009 37.3765 118.751 27.1106C133.494 16.8448 120.802 -5.76287 88.1387 9.36909C67.0308 19.1479 53.8521 13.6964 47.1697 8.61582C40.8717 3.82682 33.8247 -1.26391 26.0656 0.282265C16.6506 2.15888 11.8093 9.0792 22.0727 28.399C36.6169 55.7771 -4.87402 57.7404 0.480262 83.1311Z" fill="#F4F5F6"/>
<path d="M62.4639 80.5008L63.3414 81.5412L63.0776 89.6674L27.4486 96.8057C27.1858 96.8586 26.915 96.8593 26.652 96.8075C26.3889 96.7558 26.1385 96.6527 25.9153 96.5042C25.6921 96.3557 25.5003 96.1647 25.3509 95.942C25.2015 95.7194 25.0974 95.4695 25.0446 95.2066L14.6225 43.1871C14.5693 42.9245 14.5685 42.6539 14.6202 42.391C14.6719 42.128 14.7751 41.8779 14.9238 41.655C15.0724 41.432 15.2637 41.2406 15.4866 41.0919C15.7095 40.9431 15.9596 40.8398 16.2225 40.788L54.1725 33.1797L52.5115 38.9669C52.5115 38.9669 55.5487 44.6943 56.1365 45.6238L53.3438 57.7018L61.5921 65.8694L58.9763 76.3449L62.4639 80.5008Z" fill="#B1B5C4"/>
<path d="M57.0169 67.3676L27.5529 73.2722C27.4633 73.2901 27.4052 73.3774 27.4232 73.467L28.293 77.8077C28.311 77.8973 28.3982 77.9554 28.4879 77.9375L57.9518 72.0329C58.0414 72.0149 58.0996 71.9277 58.0816 71.838L57.2117 67.4974C57.1938 67.4077 57.1065 67.3496 57.0169 67.3676Z" fill="white"/>
<path d="M58.9771 76.3457L62.4644 80.5016L31.1296 86.7788C30.8642 86.8313 30.5888 86.7767 30.3636 86.6269C30.1384 86.4771 29.9816 86.2442 29.9275 85.9792L29.3957 83.3164C29.3688 83.1849 29.3681 83.0494 29.3938 82.9177C29.4195 82.786 29.471 82.6606 29.5453 82.5489C29.6196 82.4372 29.7153 82.3413 29.8269 82.2667C29.9384 82.1921 30.0636 82.1403 30.1953 82.1143L58.9771 76.3457Z" fill="white"/>
<path d="M122.671 33.9448L108.96 85.1904C108.819 85.7127 108.477 86.1579 108.009 86.4288C107.541 86.6998 106.984 86.7744 106.461 86.6364L65.9844 75.8063L70.3266 69.121L69.8377 67.4099L68.3117 62.0767L68.3129 62.0718L75.4896 54.1108L71.504 42.4201L79.3902 33.2341L79.0343 24.8551L83.426 21.3281L121.231 31.442C121.753 31.5836 122.198 31.9266 122.468 32.3957C122.738 32.8649 122.811 33.422 122.671 33.9448Z" fill="#B1B5C4"/>
<path d="M113.752 34.7253L106.386 32.7543C104.62 32.2816 102.804 33.3305 102.332 35.0969L100.361 42.4626C99.8879 44.2291 100.937 46.0443 102.703 46.517L110.069 48.488C111.835 48.9607 113.651 47.9119 114.123 46.1454L116.094 38.7797C116.567 37.0133 115.518 35.198 113.752 34.7253Z" fill="white"/>
<path d="M76.6345 65.3571L75.9358 67.9811C75.8653 68.2423 75.6942 68.465 75.46 68.6005C75.2258 68.736 74.9475 68.7732 74.6859 68.7041L69.8385 67.4094L68.3125 62.0762L75.9161 64.1088C76.0456 64.143 76.1671 64.2025 76.2734 64.2839C76.3798 64.3653 76.469 64.467 76.5358 64.5831C76.6026 64.6991 76.6457 64.8273 76.6627 64.9602C76.6796 65.093 76.6701 65.2279 76.6345 65.3571Z" fill="white"/>
<path d="M60.8565 30.0043C60.6635 29.7939 60.5596 29.5168 60.5667 29.2313C60.5739 28.9459 60.6914 28.6743 60.8947 28.4738L68.4014 20.7703C68.8498 20.3101 69.5785 20.2992 70.0043 20.7464L70.5979 21.3696C71.0237 21.8166 70.9754 22.5419 70.4914 22.9648L62.3912 30.045C62.1794 30.2372 61.9016 30.3402 61.6157 30.3326C61.3298 30.3251 61.0578 30.2074 60.8565 30.0043Z" fill="#E0E0E0"/>
<path d="M56.4229 27.3611C56.3394 27.3226 56.2642 27.268 56.2018 27.2005C56.1393 27.1329 56.0908 27.0537 56.0589 26.9674C56.0271 26.8811 56.0125 26.7893 56.0162 26.6974C56.0198 26.6054 56.0415 26.5151 56.08 26.4316L58.8926 20.0181C58.9714 19.8347 59.1199 19.6902 59.3052 19.6162C59.4906 19.5422 59.6978 19.5448 59.8812 19.6234L60.3988 19.8575C60.4869 19.8984 60.5657 19.957 60.63 20.0299C60.6943 20.1027 60.7429 20.188 60.7726 20.2805C60.8023 20.3731 60.8124 20.4707 60.8025 20.5674C60.7925 20.664 60.7626 20.7576 60.7147 20.8421L57.3848 27.0218C57.2964 27.1889 57.1484 27.3166 56.9702 27.3795C56.792 27.4423 56.5966 27.4358 56.4229 27.3611Z" fill="#E0E0E0"/>
<path d="M51.753 28.401C51.163 28.5047 50.5967 28.0029 50.4692 27.2634L48.2055 14.1328C48.0704 13.3484 48.4793 12.603 49.1051 12.493L49.9774 12.3398C50.6032 12.2298 51.1942 12.7996 51.277 13.5931L52.6684 26.877C52.747 27.6251 52.3431 28.2974 51.753 28.401Z" fill="#E0E0E0"/>
</svg>
